<svg id="圖層_1" data-name="圖層 1" xmlns="http://www.w3.org/2000/svg" viewBox="0 0 300 300"><defs><style>.cls-1{fill:none;stroke:#383735;stroke-width:12px;}.cls-1,.cls-2,.cls-3{stroke-miterlimit:10;}.cls-2,.cls-3{fill:#383735;stroke:#fff;}.cls-2{stroke-width:4px;}.cls-3{stroke-width:2px;}</style></defs><title>icon-02-01</title><circle class="cls-1" cx="150" cy="150" r="136.17"/><path class="cls-2" d="M94,108.95c0,4.27.89,7.63,4.59,9.67,3.37,1.86,6.6,1.73,9.46-.76,2.37-2.07,4.27-4.68,6.67-6.71a8.6,8.6,0,0,1,4.91-2.23q30.3-.22,60.6,0a8.7,8.7,0,0,1,4.93,2.19c2,1.69,3.6,3.95,5.51,5.82,2.61,2.56,5.69,3.74,9.3,2.34a8.75,8.75,0,0,0,5.9-8.4c0-.58.09-1.16.18-2.34,5.08.33,10.14.07,14.91,1.12,7.87,1.73,12.21,8.51,11.08,16.36q-5.77,40.2-11.74,80.37c-1.24,8.25-6.57,15.62-18.32,15.54-33.83-.22-67.66-.07-101.49-.08-10,0-16.15-4.71-18-14.48-3.13-16.32-5.89-32.72-8.78-49.09-1.84-10.4-3.57-20.81-5.47-31.2-1.71-9.35,3.61-17,13.16-18.06C85.39,108.56,89.55,108.95,94,108.95Zm78.65,96.19c0-6.09,0-11.79,0-17.49,0-11-.08-21.92.06-32.87.05-4.47,2.8-7.89,6.41-8.7a8.11,8.11,0,0,1,9.38,4.55,15.62,15.62,0,0,1,1.06,6c.09,14.73,0,29.46,0,44.2,0,1.4,0,2.79,0,4.41h4.58c7,0,8-1,8.84-8.12.52-4.46,1.24-8.9,1.84-13.36,2.32-17.22,4.68-34.43,6.92-51.65.66-5.11-.85-6.64-6-6.64H102c-3,0-6.09-.09-9.13,0-3.88.13-5.45,2.06-4.94,5.9.27,2,.61,4.08.95,6.12,3.32,20.13,6.58,40.26,10,60.38,1.23,7.24,1.27,7.94,11.35,7.67,0-1.52,0-4.09,0-5.67,0-14.73,0-29.47,0-44.2,0-5.72,3.34-9.61,8.14-9.8,5.12-.19,8.67,3.5,8.7,9.45.08,15.22,0,30.44,0,45.66,0,1.3,0,2.6,0,4h14.39c0-1.48,0-2.68,0-3.88q0-22.83,0-45.66a11.91,11.91,0,0,1,.5-3.93,8.33,8.33,0,0,1,9.57-5.46,8.55,8.55,0,0,1,6.65,8.47c.05,15.46,0,30.93,0,46.39,0,1.39,0,2.79,0,4.24Z"/><path class="cls-3" d="M166.92,69.58c3-.16,4.8,2,6.17,3.48Q187.67,89.16,202,105.5c3.29,3.75,3,7.73-.34,10.64-3.17,2.76-7,2.56-10.29-1.07-9.88-10.92-19.61-22-29.38-33-2-2.31-2.86-5.19-1.09-7.71C162.32,72.31,163.88,69.75,166.92,69.58Z"/><path class="cls-3" d="M102.38,118c-2.68-.18-4.27-2.17-5.75-4.13-1.89-2.49-1.19-5.4.79-7.73,3.3-3.9,6.74-7.68,10.13-11.5q9.31-10.52,18.64-21c2.3-2.59,5-4.44,8.63-3.22A7.1,7.1,0,0,1,138,82c-9.83,11.29-19.84,22.41-29.9,33.49A6.91,6.91,0,0,1,102.38,118Z"/></svg>