<svg id="圖層_1" data-name="圖層 1" xmlns="http://www.w3.org/2000/svg" viewBox="0 0 300 300"><defs><style>.cls-1{fill:none;stroke-width:12px;}.cls-1,.cls-2{stroke:#383735;stroke-miterlimit:10;}.cls-2{fill:#383735;stroke-width:3px;}</style></defs><title>icon-02-02</title><circle class="cls-1" cx="150" cy="150" r="136.17"/><path class="cls-2" d="M224.51,211.46v10.47h-149V211.46c.28-1.5.56-3,.85-4.5,4.49-23.47,18.31-39.63,39.32-50.11,3.67-1.83,7.59-3.17,11.62-4.82l-3.08-2.32c-25.44-19.27-21.47-58.89,7.39-72.47,4.31-2,9.16-2.9,13.76-4.31h9.31a10.53,10.53,0,0,0,1.63.52c17.53,2.7,30.93,15.05,35.34,32.63,4,16.06-2.53,33.74-16.31,44-.86.64-1.71,1.3-2.85,2.17,1.47.48,2.39.76,3.3,1.09,23.22,8.53,39.63,23.72,46.62,48C223.34,204.62,223.81,208.07,224.51,211.46Zm-139.29,1H214.78c-1.79-28-29.29-54.26-65.39-54C114.26,158.74,87,184.42,85.21,212.44Zm31.38-96.91c-.17,18,14.62,33.34,32.45,33.57,19,.24,34.09-14.29,34.35-33.12a33.4,33.4,0,1,0-66.8-.45Z"/></svg>