<svg id="圖層_1" data-name="圖層 1" xmlns="http://www.w3.org/2000/svg" viewBox="0 0 300 300"><defs><style>.cls-1{fill:none;stroke-width:12px;}.cls-1,.cls-2{stroke:#383735;stroke-miterlimit:10;}.cls-2{fill:#383735;stroke-width:4px;}</style></defs><title>icon-02-03</title><circle class="cls-1" cx="150" cy="150" r="136.17"/><path class="cls-2" d="M227.08,79.37c-1.14,5.82-2.38,11.62-3.39,17.47Q215.8,142.18,208,187.55c-1.22,7.07-2.44,14.14-3.61,21.22-1.2,7.24-5.48,9.46-12.11,6.19-12.77-6.3-25.56-12.58-38.28-19-2-1-3.23-.85-4.89.67-8.39,7.71-16.9,15.27-25.38,22.88-4.27,3.83-6.71,3.17-8.7-2.29-5.06-13.89-10.16-27.77-15.13-41.7A5,5,0,0,0,96.12,172c-10.62-3-21.17-6.23-31.78-9.25-3.25-.93-5.89-2.39-7.2-5.67v-2.66c2.26-1.81,4.27-4.13,6.81-5.35Q141.08,112,218.34,75.12c4.86-2.32,5.66-2.15,8.74,1.6ZM134.24,180.32a7.64,7.64,0,0,0,1,.87l59.93,29.73c2.42,1.2,3.7.53,4.15-2.17,1.7-10,3.48-20,5.21-30q6.91-40,13.81-79.92c.81-4.69,1.53-9.39,2.28-14.08l-.81-.31Zm-72.18-25,.21,1.16a24.26,24.26,0,0,0,2.87,1.26c10.47,3.11,21,6.1,31.4,9.33a6.9,6.9,0,0,0,6.92-1.33q52.35-39.33,104.81-78.52c1.13-.85,2.23-1.75,3.35-2.63l-.34-.61Zm55.32,53.76.77.07c2.71-8.15,5.28-16.36,8.23-24.43a26,26,0,0,1,4.72-8.18q31-35,62.26-69.83c.89-1,1.71-2,2.56-3.07a5.8,5.8,0,0,0-3.15,1.34l-24.16,18.09q-31.07,23.25-62.18,46.44c-2.22,1.64-2.54,3-1.59,5.45,3.21,8.34,6.17,16.78,9.24,25.18C115.17,203.13,116.28,206.1,117.38,209.08Zm14.08-24.22L122,213.43l.71.43,23.9-21.52Z"/></svg>