<svg id="圖層_1" data-name="圖層 1" xmlns="http://www.w3.org/2000/svg" viewBox="0 0 300 300"><defs><style>.cls-1{fill:#898989;}.cls-2{fill:#fff;}</style></defs><title>icon-03svg</title><g id="icon"><circle class="cls-1" cx="150" cy="150" r="144.17"/><path class="cls-2" d="M246.91,117.11c.84,10.86-1,23.87-8.17,24.5-11.7,1-5.6-11.84-5.44-19.6.43-22.49-18.77-38.11-37.57-38.11-5.33,0-17.7,3.61-15.8-7.62.86-5,5.05-4.88,9.26-5.44,31.63-4.22,55.5,17.54,57.73,46.28Zm-51.73,26.14c13.6,7.44,29.93,11.14,27.22,33.22-.65,5.29-3.85,12.36-7.08,16.87-23,32.17-92.3,45.7-135.59,21.24-14.52-8.21-29.54-20.21-27.22-44.11,2-20.58,15.83-36.51,29.41-50.09,13-13,26.61-23.1,45.19-27.77,20.16-5.07,26.12,11.74,20.69,28.31,11.68-.78,36.43-13.82,47.37-1.09,4.82,5.61,3,15.66,0,23.42Zm-14.7,52.27c4.36-4.94,8.74-12.47,8.71-21.23-.06-27.06-34.15-37.06-61-34.85-14.68,1.2-24.55,4.3-34.85,10.35-8.41,4.93-18.24,13-20.69,25-5.51,27.16,24,39.93,45.74,41.38C143.47,217.9,168.57,209,180.48,195.52Zm39.75-78.41c1.14,8.29-1.23,15.47-6,15.79-7.93.53-5-5.43-5.45-12.52-.3-4.37-3.92-9.41-7.08-10.89-6.2-2.9-15.79,2.11-15.79-6.53,0-6.42,5.57-5.75,8.72-6C208.42,95.91,218.62,105.42,220.23,117.11Zm-63.7,54.45c11.6,35.06-48.84,51.37-59.9,21.23-7.4-20.15,10.36-36.18,28.86-38.11C141.27,153,153,161.08,156.52,171.56Zm-27.77,6c2.46,4.26,8.12,1.2,7.62-2.18C135.78,171.47,128.7,172,128.75,177.55Zm-9.8,18.52c10.16-2.42,11.53-21.56-3.81-18C102.25,181.11,104.74,199.45,118.95,196.07Z"/></g></svg>