<svg id="cate-01-icon_1" data-name="cate-01-icon 1" xmlns="http://www.w3.org/2000/svg" viewBox="0 0 300 300"><defs><style>.cls-1{fill:#231815;}.cls-2{font-size:37.41px;stroke:#fff;stroke-miterlimit:10;stroke-width:0.25px;font-family:MicrosoftJhengHeiRegular, Microsoft JhengHei;}.cls-2,.cls-3{fill:#fff;}</style></defs><title>icon</title><text class="cls-2" transform="translate(75.18 238.89)">水质检测</text><path class="cls-3" d="M117.17,64.29a.66.66,0,0,0-1.28,0c-2.77,22.35-17,27-17,42.5a17.59,17.59,0,0,0,35.18,0C134.12,91.25,119.94,86.64,117.17,64.29Zm66.95,0a.66.66,0,0,0-1.28,0c-2.77,22.35-16.95,27-16.95,42.5a17.59,17.59,0,0,0,35.18,0C201.06,91.25,186.88,86.64,184.11,64.29Zm-34.75,48.26c-2.77,22.36-17,27-17,42.49a17.59,17.59,0,0,0,35.18,0c0-15.54-14.18-20.14-17-42.49A.65.65,0,0,0,149.36,112.55Z"/></svg>