<svg id="圖層_1" data-name="圖層 1" xmlns="http://www.w3.org/2000/svg" viewBox="0 0 300 300"><defs><style>.cls-1{fill:#898989;}.cls-2{fill:#fff;}</style></defs><title>icon-03</title><circle class="cls-1" cx="150" cy="150" r="144.17"/><path class="cls-2" d="M182.81,126.76c-5.61.62-11.1.81-16.39,1.92-12.3,2.59-22.42,8.85-29.5,19.43-6.14,9.18-7.39,19.21-4.64,29.82.15.58.33,1.16.6,2.15-3.32-.2-6.47-.17-9.53-.62-3.89-.58-7.71-1.6-11.58-2.33a3.86,3.86,0,0,0-2.35.32c-4.74,2.45-9.43,5-14.15,7.52-.63.34-1.29.64-2.29,1.14.24-.92.37-1.53.56-2.11,1.3-3.92,2.57-7.85,4-11.72a1.81,1.81,0,0,0-.83-2.51c-8.33-5.93-14.82-13.4-17.75-23.34-5-16.91.08-31.12,12.79-42.61,12.29-11.11,27.17-15.14,43.51-14a55.79,55.79,0,0,1,32.64,12.9,43.42,43.42,0,0,1,14.66,22.75c.11.41.21.82.27,1.24C182.83,126.88,182.73,127.06,182.81,126.76ZM156,119.08a7.53,7.53,0,0,0-7.19-7.65,7.24,7.24,0,0,0-7.65,7.27,7.36,7.36,0,0,0,6.89,7.66A7.64,7.64,0,0,0,156,119.08Zm-36.6-.18a7.69,7.69,0,0,0-7.43-7.48,7.47,7.47,0,0,0-.21,14.93A7.57,7.57,0,0,0,119.4,118.91Z"/><path class="cls-2" d="M209.24,210.36c-1.37-.74-2.74-1.49-4.11-2.21-2.94-1.55-5.78-3.45-8.89-4.55-3.27-1.15-6.43,1-9.68,1.43-14.68,2-28.1-.84-39.65-10.36-17.68-14.58-17.66-38.92,0-53.56,10.17-8.44,22.06-11.69,35.12-10.83,10.4.69,19.82,4.09,27.83,10.89,17.5,14.86,17.5,38.44.07,53.36l-.28.23c-1.27,1.1-3.25,2-3.61,3.35s.84,3.17,1.35,4.79q1.13,3.59,2.27,7.2ZM170.76,155.8a6.4,6.4,0,0,0-6.1-6.07,6,6,0,0,0-5.88,6.14,5.88,5.88,0,0,0,5.81,5.82A6,6,0,0,0,170.76,155.8Zm29.39,0a6.28,6.28,0,0,0-6-6.1c-3,0-6.19,3-6.22,5.8a6.39,6.39,0,0,0,6.22,6.14A6,6,0,0,0,200.15,155.85Z"/></svg>