<svg id="cate-02-icon_1" data-name="cate-02-icon 1" xmlns="http://www.w3.org/2000/svg" viewBox="0 0 300 300"><defs><style>.cls-1{fill:#231815;}.cls-2,.cls-3{fill:#fff;}.cls-3{font-size:37.41px;stroke:#fff;stroke-miterlimit:10;stroke-width:0.25px;font-family:MicrosoftJhengHeiRegular, Microsoft JhengHei;}</style></defs><title>icon-02</title><path class="cls-2" d="M207.81,143.43c-3.89,1.67-5.62,1.35-8.75-1.64L173.32,117.2,172,115.94l-4.45,4.66-1.29-1.23q-20.41-19.5-40.78-39A15.45,15.45,0,0,1,122.39,76a8.24,8.24,0,0,1,.46-7.77c.12-.22.21-.46.32-.69l2.15-2.25c.32-.17.65-.34,1-.52,3.72-2.13,8-1.5,11.59,1.83,4.74,4.45,9.43,9,14.13,13.47q27.71,26.47,55.44,52.92c2.6,2.47,3.79,5.11,2.21,8.56Z"/><path class="cls-2" d="M109.83,81.45a2.85,2.85,0,0,1,3.33.76q12,11.52,24.05,23c3.34,3.19,3.46,7.71.31,11.93-.1.13-.17.28-.3.5.21.24.4.5.64.72l43.46,41.52a13.67,13.67,0,0,1,1.87,2c1.62,2.34,1.25,4.92-.27,7.58l-1.58,1.65c-.22.11-.44.21-.65.34-2.57,1.62-5.43,1.71-7.45-.06-2.92-2.56-5.71-5.27-8.51-7.95q-18.26-17.43-36.5-34.88c-.49-.47-.83-.79-1.63-.09-3.63,3.18-8.32,3.33-11.46.36C110,124,105,119.2,100,114.37c-3-2.86-6-5.75-9-8.56a3.33,3.33,0,0,1-1.24-3.29l1.4-1.47a3.11,3.11,0,0,1,3.28.95c5.63,5.44,11.3,10.84,17,16.24.28.27.59.51.89.76l2.84-3-1-1Q105.61,107,97.19,99a2.86,2.86,0,0,1-1-3.24l1.05-1.1a2.71,2.71,0,0,1,3.24.67q8.43,8.12,16.91,16.18l1.05,1,2.91-3c-.29-.31-.53-.58-.79-.83q-8.58-8.21-17.17-16.39a2.74,2.74,0,0,1-.91-3.07l1.05-1.1c1.44-.59,2.38,0,3.28.89q8.48,8.13,17,16.23c.28.27.59.51.89.76l2.89-3-1.06-1q-8.42-8-16.84-16.07a2.75,2.75,0,0,1-.91-3.28Z"/><text class="cls-3" transform="translate(75.18 238.89)">食品安全</text></svg>