<svg id="圖層_1" data-name="圖層 1" xmlns="http://www.w3.org/2000/svg" viewBox="0 0 100 100"><defs><style>.cls-1{fill:#f5a819;}</style></defs><title>comma</title><path class="cls-1" d="M45.37,88.22H1.7c-.06-.76-.17-1.55-.17-2.35,0-13.27.1-26.53-.05-39.8A30.85,30.85,0,0,1,6.93,27.85a55.14,55.14,0,0,1,16.6-16.08L35,20.45c-6.83,6.43-11.22,14-11.59,23.75h22Z"/><path class="cls-1" d="M98.53,88.23H65.26c0-.77-.11-1.44-.11-2.11,0-10.21.07-20.42,0-30.62A22.54,22.54,0,0,1,69,42.55,40.56,40.56,0,0,1,80.42,30.9a2.61,2.61,0,0,1,2.3-.24c2.62,1.8,5.11,3.81,7.78,5.84C85.39,41.44,82,47.14,81.72,54.65H98.53Z"/></svg>