<svg id="圖層_1" data-name="圖層 1" xmlns="http://www.w3.org/2000/svg" viewBox="0 0 300 300"><defs><style>.cls-1{fill:#0b9b93;}</style></defs><title>icon-4</title><path class="cls-1" d="M134,70.1c-4.16,0-8.32.06-12.47,0-2,0-2.74.52-2.71,2.34.09,5.37,0,10.74-.06,16.11a10.05,10.05,0,0,1-.3,2.62c-.48,1.69-1.75,2.22-3.54,1.4a20.71,20.71,0,0,1-3-1.72Q87.22,74.12,62.55,57.39c-4.86-3.29-4.86-3.86,0-7.19l50.89-34.47c3.26-2.21,4.64-1.82,5,1.8s.27,7,.33,10.56c0,2.48.08,5-.06,7.45-.09,1.71.69,2.16,2.57,2.18,10.9.12,21.8.33,32.7.53,20.84.38,41.23,2.86,60.49,10.17,15.62,5.93,30,13.51,41.25,24.91,10,10.16,14.62,22.29,16.2,35.38q3.32,27.52-14.91,50.27a53.36,53.36,0,0,1-14.19,12.38,17.31,17.31,0,0,1-2.6,1.36c-2.72,1.07-5,.66-6.47-1.06-1.61-1.94-1.39-3.74,1.11-5.71,6.58-5.17,12.22-10.93,15.49-18.2,5.61-12.48,4-24.54-3.29-36.09-9.16-14.51-23.41-23.85-41-29.74A221.29,221.29,0,0,0,134,70.1Z"/><path class="cls-1" d="M220.31,179.42c0,14.2,0,28.39,0,42.59,0,2.32-.52,3.56-2.56,4.58q-58.27,29-116.45,58.33c-2.28,1.15-3.79.9-5.74-.67Q63,257.92,30.2,231.79A6.49,6.49,0,0,1,27.48,226q.15-40.22,0-80.44c0-1.85.23-2.94,2.14-3.67q56.27-21.3,112.46-42.85a7.33,7.33,0,0,1,6.36.2q34.61,16.63,69.33,33c1.88.89,2.56,2,2.55,4.25C220.27,150.8,220.31,165.11,220.31,179.42ZM205.52,151c-1,.35-1.52.47-2,.67q-47.38,20.75-94.77,41.45c-1.91.83-2.26,2-2.26,4,.06,21.29,0,42.58,0,63.87,0,.94.12,1.89.2,3.06.76-.28,1.24-.41,1.69-.64q47.4-23.75,94.81-47.48c1.77-.88,2.33-2,2.32-4.06-.07-16.56,0-33.12-.05-49.67C205.52,158.65,205.52,155.07,205.52,151Zm-11.78-12.57c-15.84-7.48-30.87-14.51-45.83-21.73a7.59,7.59,0,0,0-6.65-.34Q99.16,133,57,149.41c-1,.38-1.9.85-3.19,1.43.8.62,1.11.91,1.45,1.13C69.5,160.84,83.72,169.74,98,178.48a5.11,5.11,0,0,0,4.19,0q35.25-15.28,70.43-30.77ZM91.63,260.55a11.9,11.9,0,0,0,.24-1.55c0-21.16.06-42.31-.06-63.47a5.09,5.09,0,0,0-2.2-3.42c-8.16-5.24-16.4-10.3-24.63-15.41L42.6,162.8a13.18,13.18,0,0,0-.26,1.67c0,18.23,0,36.46.06,54.69a5.27,5.27,0,0,0,1.71,3.51Q66.7,241,89.43,259.11C90,259.61,90.75,260,91.63,260.55Z"/></svg>