<svg id="圖層_1" data-name="圖層 1" xmlns="http://www.w3.org/2000/svg" viewBox="0 0 300 300"><defs><style>.cls-1{fill:#00a29a;stroke:#00a29a;stroke-miterlimit:10;stroke-width:2px;}</style></defs><title>icon-1</title><path class="cls-1" d="M150.22,22.77c3.79,3.91,7.61,7.8,11.38,11.73,21.27,22.14,40.78,45.68,57,71.82,9.89,15.94,18.15,32.62,23.24,50.79C256.12,208,225.11,260.36,174.9,273.82c-5.24,1.4-10.71,2-16.08,2.93-.72.13-1.43.32-2.15.48H143.26c-5-.84-10-1.45-14.87-2.55-37.5-8.38-66.8-40-72.65-78-2.68-17.41-.13-34.08,5.85-50.43C70.31,122.41,83.71,101.2,98.79,81a490.37,490.37,0,0,1,49.52-56.54c.52-.51.94-1.11,1.41-1.67Zm-.1,22.34c-.62.59-1.05,1-1.45,1.39a452.34,452.34,0,0,0-43.13,52.25C94.67,114.22,84.85,130.31,77.84,148c-6,15.17-9.12,30.68-6.32,47.09,10,58.42,78.35,86.22,125.66,50.58,25.13-18.93,35.72-44.72,31.11-76.11-2.18-14.83-8.36-28.34-15.46-41.4-13.72-25.24-31.09-47.85-50.11-69.26C158.61,54.23,154.35,49.72,150.11,45.11Z"/><path class="cls-1" d="M86.6,178.68h14.26c1.74,0,1.4,1.33,1.44,2.31a44.21,44.21,0,0,0,5.31,19.72c8.67,15.82,22.12,24.36,40.09,25.79.5,0,1,0,1.49.09a3.44,3.44,0,0,1,.63.21V242C117.44,243.4,86,214.69,86.6,178.68Z"/></svg>