<svg id="圖層_1" data-name="圖層 1" xmlns="http://www.w3.org/2000/svg" viewBox="0 0 300 300"><defs><style>.cls-1{fill:none;stroke:#00a29a;stroke-miterlimit:10;stroke-width:18px;}</style></defs><title>icon-2</title><path class="cls-1" d="M160.61,24.19l95.34,47.67A23.84,23.84,0,0,1,269.18,93.2V206.77a23.84,23.84,0,0,1-13.23,21.33l-95.34,47.67a23.84,23.84,0,0,1-21.33,0L43.93,228.11a23.84,23.84,0,0,1-13.11-21.45V93.2A23.84,23.84,0,0,1,44.05,71.87l95.34-47.67A23.84,23.84,0,0,1,160.61,24.19Z"/><polyline class="cls-1" points="34.64 80.33 150 138.01 265.36 80.33"/><line class="cls-1" x1="150" y1="278.16" x2="150" y2="138.01"/><line class="cls-1" x1="90.41" y1="48.63" x2="209.59" y2="108.21"/></svg>