<svg id="圖層_1" data-name="圖層 1" xmlns="http://www.w3.org/2000/svg" viewBox="0 0 300 300"><defs><style>.cls-1{fill:#0b9b93;stroke:#164358;stroke-miterlimit:10;stroke-width:5px;}</style></defs><title>icon-3</title><path class="cls-1" d="M297.43,240.4c-2.74,7.18-8,9.91-15.56,9.43-5.23-.33-10.5-.06-15.49-.06l-4.95-24.67h9.09a20.47,20.47,0,0,0-.41-2.67c-3.87-12.74-11.22-22.74-23-29.29a9.68,9.68,0,0,1-3-2.54A125,125,0,0,0,206.66,157c-.24-.14-.45-.32-.85-.6l7.77-9.73c3.86,2.27,7.88,3.83,12.49,3.12A20.48,20.48,0,0,0,240.93,140c6.19-9.88,8.9-20.6,6.52-32.13-1.75-8.49-7.15-14.28-15.29-17.3-1.83-.68-2.31-1.6-2.48-3.48C229,79.46,228,71.89,227,63.69c3.76.82,8,1.36,12,2.68,21.66,7.12,35,27.18,34,50.55-.57,13.12-3.84,25.43-11.32,36.26-3.43,5-8,9.19-12.05,13.82-.25-.17.09.14.48.31q40.47,17.72,46.8,61.43a5.9,5.9,0,0,0,.52,1.29Z"/><path class="cls-1" d="M2.57,230c.86-4.09,1.46-8.26,2.63-12.27,6.85-23.49,21.34-40.33,43.91-50.06.61-.26,1.2-.57,1.79-.87.07,0,.09-.16.22-.41-1.33-1.12-2.75-2.22-4.05-3.43C36.18,152.84,30.36,140,28,125.58c-1.84-11.15-1.53-22.23,3.44-32.65,8.16-17.1,21.71-26.81,40.64-28.8a14.25,14.25,0,0,1,1.43,0C72.64,68.6,71.67,72.88,71,77.2c-.49,3.4-.47,6.88-.88,10.3a3.43,3.43,0,0,1-1.58,2.43c-11.32,4.59-17,13-16.79,25.13a46.91,46.91,0,0,0,8.15,25.62c4.84,7.29,16.17,12.89,26.43,6.14a3.45,3.45,0,0,1,.75-.28l7.45,9.81c-5.82,4.14-11.83,8.07-17.46,12.5-8.15,6.42-15.77,13.42-21.68,22.09a9,9,0,0,1-3.11,2.41c-12.15,6.83-19.43,17.32-23.08,30.56a5.78,5.78,0,0,0,0,1.16h9.08l-4.88,24.45c-7,0-14.23.43-21.36-.15-5-.41-7.72-4.5-9.5-9Z"/><path class="cls-1" d="M164.38,161.24a96.69,96.69,0,0,1,40.47,16.55c22.84,16.12,36.71,38.08,41.88,65.49a104.6,104.6,0,0,1,1.65,15.95c.28,8.66-5.12,13.87-13.9,13.88q-38.29,0-76.58,0H65.78c-9.13,0-14.31-5.12-14.21-14.2a103,103,0,0,1,.65-11.18c2.45-20.36,10.32-38.43,24-53.72,15.62-17.5,34.92-28.75,58.28-32.54a2.4,2.4,0,0,0,1.26-.7c-8.58-2.24-15.76-7.11-22.57-12.22a47.8,47.8,0,0,1-11.66-12.91c-12.84-20.8-17.1-43.26-9.61-66.87,8-25.3,32.09-42,58.62-41.9C181.58,27,208.12,51.14,211.09,82c1.92,20-2.52,38.56-13.56,55.27-7.33,11.09-17.45,19-30.51,22.63-.73.2-1.45.46-2.16.7C164.79,160.66,164.75,160.77,164.38,161.24Zm58,86.68c-5.88-35.08-36.26-64.53-75.71-62.69-36.26,1.69-63.77,29.95-68.89,62.69ZM150,51.81c-17.45.1-32.24,11.61-35.78,28.73-3.16,15.28.59,29.63,8.95,42.46,12.69,19.49,41.33,19.19,54.12-.21a57.67,57.67,0,0,0,9.48-36A36.75,36.75,0,0,0,150,51.81Z"/></svg>