<svg id="圖層_1" data-name="圖層 1" xmlns="http://www.w3.org/2000/svg" viewBox="0 0 300 300"><defs><style>.cls-1{fill:#3e3a39;stroke:#f8b62d;stroke-miterlimit:10;stroke-width:4px;}</style></defs><title>icon-3</title><path class="cls-1" d="M272.53,225.13c-2.28,6-6.68,8.24-12.93,7.84-4.35-.28-8.73-.05-12.87-.05l-4.11-20.51h7.55a17,17,0,0,0-.34-2.22c-3.22-10.59-9.33-18.9-19.13-24.34a8,8,0,0,1-2.51-2.11,103.9,103.9,0,0,0-31.1-27.94c-.2-.12-.38-.27-.7-.5l6.45-8.09c3.21,1.89,6.55,3.18,10.38,2.59a17,17,0,0,0,12.35-8.14c5.15-8.22,7.39-17.12,5.42-26.7-1.45-7.06-5.94-11.87-12.71-14.38-1.52-.57-1.92-1.33-2.06-2.89-.6-6.31-1.42-12.61-2.22-19.42a96.7,96.7,0,0,1,10,2.22c18,5.92,29.07,22.59,28.22,42-.47,10.9-3.19,21.13-9.4,30.14-2.85,4.14-6.62,7.64-10,11.48-.2-.14.07.12.4.26q33.63,14.73,38.9,51.06a4.9,4.9,0,0,0,.43,1.08Z"/><path class="cls-1" d="M27.47,216.52c.72-3.4,1.22-6.87,2.19-10.2,5.69-19.52,17.74-33.52,36.5-41.61.51-.22,1-.47,1.49-.72.06,0,.08-.13.19-.34-1.11-.93-2.28-1.84-3.37-2.85-9.05-8.44-13.89-19.09-15.87-31.1-1.53-9.26-1.27-18.48,2.86-27.14,6.79-14.21,18-22.28,33.78-23.94a11.84,11.84,0,0,1,1.19,0c-.72,3.73-1.52,7.28-2,10.87-.41,2.83-.39,5.72-.74,8.56a2.85,2.85,0,0,1-1.31,2c-9.41,3.82-14.14,10.83-14,20.89a39,39,0,0,0,6.77,21.29c4,6.06,13.44,10.71,22,5.11a2.87,2.87,0,0,1,.62-.23l6.19,8.15c-4.84,3.44-9.83,6.71-14.51,10.39C82.64,171,76.31,176.82,71.4,184a7.52,7.52,0,0,1-2.58,2c-10.1,5.68-16.15,14.4-19.18,25.4a4.81,4.81,0,0,0,0,1h7.55l-4.05,20.32c-5.84,0-11.83.36-17.75-.12-4.18-.34-6.41-3.74-7.9-7.46Z"/><path class="cls-1" d="M162,159.34a80.36,80.36,0,0,1,33.64,13.75c19,13.4,30.51,31.65,34.81,54.43a86.93,86.93,0,0,1,1.37,13.25c.23,7.2-4.25,11.53-11.55,11.54l-63.65,0H80c-7.59,0-11.89-4.25-11.81-11.8a85.58,85.58,0,0,1,.54-9.29,80,80,0,0,1,19.92-44.65c13-14.55,29-23.89,48.44-27a2,2,0,0,0,1-.58C131,157.09,125,153,119.38,148.8a39.73,39.73,0,0,1-9.69-10.73c-10.67-17.29-14.21-36-8-55.58,6.67-21,26.67-34.94,48.72-34.82,25.82.14,47.88,20.17,50.35,45.84a69.2,69.2,0,0,1-11.27,45.93,44,44,0,0,1-25.35,18.81c-.61.17-1.2.38-1.8.58C162.29,158.86,162.26,158.95,162,159.34Zm48.17,72c-4.89-29.16-30.14-53.63-62.92-52.1-30.14,1.4-53,24.89-57.26,52.1ZM150,68.39c-14.51.09-26.79,9.65-29.73,23.88-2.62,12.7.49,24.62,7.44,35.29,10.54,16.19,34.35,15.95,45-.17a47.93,47.93,0,0,0,7.88-29.93A30.54,30.54,0,0,0,150,68.39Z"/></svg>