<svg id="圖層_1" data-name="圖層 1" xmlns="http://www.w3.org/2000/svg" viewBox="0 0 300 300"><defs><style>.cls-1{fill:none;stroke:#FFFFFF;stroke-miterlimit:10;stroke-width:15px;}.cls-2{fill:#FFFFFF;}</style></defs><title>link_icon</title><circle class="cls-1" cx="150" cy="150" r="137.79"/><path class="cls-2" d="M181.66,88.42c3.09,1,6.31,1.61,9.24,2.92a34.69,34.69,0,0,1,10.37,56.37c-2.94,3-5.91,6-9.25,9.39A48,48,0,0,0,189.56,139c-.23-.73.54-2,1.2-2.77,9.34-10.45,5.48-26.63-7.57-31.17-7.37-2.56-14.1-1-19.67,4.36q-11.92,11.5-23.43,23.42a19,19,0,0,0,.17,26.78c.17.17.33.35.51.51,4.77,4.27,4.65,6.09-.11,10.37-.24.21-.45.45-.68.68-4.72,4.71-5.7,4.67-10.42-.16-7.71-7.88-11.24-17.33-10.28-28.28a33.39,33.39,0,0,1,9.83-21c8-8.13,16.13-16.23,24.35-24.19a31.58,31.58,0,0,1,18-8.69c.21,0,.4-.25.59-.38Z"/><path class="cls-2" d="M88.46,172c1.7-4.43,3-9.08,5.19-13.23,3.27-6.12,9-10.21,14.06-15.68a51.9,51.9,0,0,0,2.65,18.06c.2.6-.55,1.71-1.13,2.33a19.14,19.14,0,0,0,8.64,31.73,17.89,17.89,0,0,0,18.21-4.42c8.14-7.81,16.1-15.81,24-23.92a19.1,19.1,0,0,0,0-26.31c-1-1.05-2.06-2-3-3.08-1.76-1.91-1.8-3.84,0-5.75s3.45-3.57,5.27-5.25a3.88,3.88,0,0,1,5.6,0c15.92,13.76,17.39,36.06,3.07,51.3-7.89,8.39-16.06,16.55-24.5,24.38-9.83,9.12-21.58,11.61-34.27,7.38s-20.39-13.49-23.2-26.67a8.69,8.69,0,0,0-.49-1.28Z"/></svg>